

<svg id="Layer_1" data-name="Layer 1" xmlns="http://www.w3.org/2000/svg" viewBox="0 0 370.57 214.33"><defs><style>.cls-1,.cls-2{fill:none;}.cls-2{stroke:#000;}</style></defs><title>MAINPAGE</title>
    <path class="cls-1" d="M506.78,491.25H136.22V276.92H506.78Zm-62-106.65.22,1.18c-2,1.16-4.09,2.36-6.17,3.47-8.52,4.53-16.76,9.47-22.34,17.65-3.57,5.22-7.51,10.25-8.66,16.82-.41,2.31-2.09,4.37-3,6.61-.7,1.67-1.76,1.74-3.11,1a9.54,9.54,0,0,1-4.87-5.83c-1.27-4.36-1.77-8.77-.35-13.21q2-6.13,3.92-12.28c.47-1.46,1.93-3.39-.1-4.25s-2.52,1.55-3.17,2.89c-3.85,7.88-7.48,15.86-11.41,23.69-6.47,12.86-14.65,24.47-26.49,32.93-9.18,6.56-18.77,12.53-28.15,18.79-1,.67-1.91,1.51-2.86,2.27l.31.75a31.43,31.43,0,0,0,4.95,0c4.17-.67,8.34-1.41,12.44-2.4s8.61-2,12.57-3.7c7.06-3.11,11.79-9,16.21-15.12.72-1,1.54-1.9,2.61-3.22.74,2.11,1.25,3.62,1.8,5.12,3.61,9.85,13.11,15.49,22.61,13.55a29.89,29.89,0,0,0,15.37-8.41c9.09-9.05,13.58-20.44,16.46-32.62.63-2.66-.3-3.58-3.38-4.05a72.39,72.39,0,0,1-7.65-1.35c-3.48-.94-4.76-3.5-3.43-6.46.95-2.11,1.71-4.47,3.19-6.15,2.44-2.76,5.06-5.65,8.2-7.42,6.78-3.8,13.86-7.1,21-10.29,8.4-3.77,14.24-9.73,17.22-18.48,1.24-3.67-.21-6.19-4-6.93a68.09,68.09,0,0,0-23.78-.32c-4.41.69-8.79,1.56-13.2,2.28a20.78,20.78,0,0,1-3.2,0c.41-.72.5-1.07.72-1.25,3.57-2.93,7-6,10.76-8.71,12.89-9.38,27.47-15.25,42.48-20.21,4-1.31,8.39-2.3,11.59-4.75,6.86-5.28,11.54-12.5,14.68-20.59,1.5-3.85.42-6.49-3.33-8.22q-9.39-4.32-19-8.19a5.85,5.85,0,0,0-4.16.32,14,14,0,0,0-4.24,3.19,108.75,108.75,0,0,0-15.24,20.79,3.06,3.06,0,0,0,1,4.46c1.08.79,2.08,1.69,3.33,2.71-.86.75-1.42,1.31-2.06,1.76-2.73,1.91-5.58,3.66-8.21,5.69-9.51,7.32-19.12,14.54-28.37,22.17-6.63,5.46-10.68,13-14.8,20.42-1.55,2.79-.56,4.1,2.54,4,8.45-.41,16.88-.94,25.33-1.18C439.92,383.41,442.37,384.2,444.81,384.6Zm-232,89.58.3.8a25.58,25.58,0,0,0,4.22-.29c6-1.43,12-2.91,17.95-4.5A28.69,28.69,0,0,0,254,455.29c3.47-6.6,6.6-13.38,10-20.05.67-1.32,1.42-3,2.6-3.6a155,155,0,0,0,33.35-22.7c2.57-2.33,4.71-2.61,7.79-1.49,8.87,3.21,16.87,2.08,23.67-5.08a11.08,11.08,0,0,1,5.49-2.94c8.35-1.74,14.78-7.24,22.14-10.91,2.28-1.14,4.16-3.21,6.52-4.08a51.13,51.13,0,0,0,24.64-19c2.24-3.18,4.34-6.47,6.57-9.66s5.18-4.2,9.09-3.85,7.86.69,11.33-.44c10.71-3.46,15.23-17.51,9-27-2.18-3.31-4.83-6.32-7.32-9.43-2-2.46-2.18-2.37-3.94.17-2.68,3.87-5.41,7.7-8.24,11.45-2.38,3.17-5.16,6.05-7.32,9.35-2.49,3.79-4.44,7.94-6.7,11.88-3,5.3-6.23,10.45-11.85,13.56-2,1.12-3.87,1.65-5.92.36-1.16-.72-1.86-.53-2.45.78a32,32,0,0,1-2.54,4.72c-3.19,4.79-6.6,5.38-11.17,2.07-.11-.07-.31,0-.67,0a19.72,19.72,0,0,1-1.22,1.94,65.64,65.64,0,0,1-5.61,7c-2.06,2-5.07,1.65-7.22-.35a13.78,13.78,0,0,0-1.25-.91c-.76,1.16-1.44,2.15-2.09,3.16-5,7.71-12.48,10.75-21.23,11.41a5.94,5.94,0,0,1-2-.59,12.49,12.49,0,0,1,.62-1.75c1.86-3.69,4-7.25,5.59-11,1.91-4.59.29-8-4.22-10.18-9.16-4.4-18.24-4-27.2.52-5.77,2.88-10.84,6.64-14,12.42-.68,1.23-.51,2.92-.73,4.4a33.91,33.91,0,0,0,3.87.52c1.29,0,2.62-.38,3.88-.22a12.59,12.59,0,0,1,4.83,1.3c6.17,3.68,6.47,10.18.71,14.21a55.16,55.16,0,0,1-16.87,8c-2.31.64-2.88.11-2.71-2.34a29.73,29.73,0,0,0-2.86-15.64c-1.76-3.56-4.1-6.7-7.7-8.54-5.84-3-10.88-1.64-15.42,4-6.71,8.35-11.12,17.93-14.32,28.05-2.57,8.13.75,14.24,8.83,17.05,4.76,1.66,9.62,1.19,14.45.23,1.2-.24,2.41-.52,4.15-.89-.67,1.74-1,2.89-1.53,4a45.81,45.81,0,0,1-13.27,16.66c-7.85,6.27-16.22,11.89-24.36,17.8C217.06,471.06,215,472.62,212.85,474.18Zm-76.07,3.62c2.59-1.74,4.65-3,6.57-4.45,12.35-9.33,21-21.65,27.89-35.26,5.12-10,8.39-20.77,10.8-31.74,1.79-8.19,3.06-16.5,2.49-24.93-.39-5.72-2.62-10.33-8.39-12.59-4.3-1.68-8.63-3.35-12.79-5.34-5-2.39-6.43-6.66-3.51-11.32,9.3-14.86,21.73-26,38.9-31,3-.87,6.39-1.61,9.32-1,2.66.53,3.62-.34,4.47-2.17,2.62-5.67,5.21-11.36,7.65-17.11a46.22,46.22,0,0,0,2.44-7.64,2.59,2.59,0,0,0-3.21-3.28,54.05,54.05,0,0,0-6.7,2.84c-13,6.75-24.19,15.83-34.34,26.23-14.67,15-26.36,32-32,52.48-1.46,5.3-1.91,10.83-.2,16.15,1.91,5.94,7,8.48,12.45,10.31,4.54,1.51,9.17,2.79,13.62,4.54,4.6,1.81,5.92,4.76,4.11,9.35a52.22,52.22,0,0,1-5.46,10.81c-8.13,11.61-19.5,19.13-32.44,24.42-1.33.55-1.71,1.11-1.68,2.43.07,3.49,0,7,0,10.49ZM223.84,414c.15-6.05-.51-11.79-3.55-17.07-3.86-6.68-9.47-11.73-15.16-16.73-2.95-2.59-3.08-2.62-4.66.87-4.12,9.18-8.17,18.39-12.26,27.58-1.47,3.31-2.23,3.23,1.76,6.31,5.82,4.49,11.2,9.45,15.35,15.58,4,5.91,4,9.4-.19,15.13-5.84,7.93-13.29,14.23-21,20.21-3.09,2.38-6.17,4.78-9.14,7.3-.61.51-.72,1.61-1.07,2.43a9.26,9.26,0,0,0,2.51.08,55.8,55.8,0,0,0,5.8-1.84c6.07-2.28,12.29-4.27,18.12-7.06s8.8-8.25,11.65-13.7C218.4,440.75,224,428.18,223.84,414Z" transform="translate(-136.22 -276.92)"/>
    <path class="cls-2" d="M444.81,384.6c-2.44-.4-4.89-1.19-7.32-1.12-8.45.24-16.88.77-25.33,1.18-3.1.15-4.09-1.16-2.54-4,4.12-7.38,8.17-15,14.8-20.42,9.25-7.63,18.86-14.85,28.37-22.17,2.63-2,5.48-3.78,8.21-5.69.64-.45,1.2-1,2.06-1.76-1.25-1-2.25-1.92-3.33-2.71a3.06,3.06,0,0,1-1-4.46A108.75,108.75,0,0,1,474,302.71a14,14,0,0,1,4.24-3.19,5.85,5.85,0,0,1,4.16-.32q9.59,3.85,19,8.19c3.75,1.73,4.83,4.37,3.33,8.22-3.14,8.09-7.82,15.31-14.68,20.59-3.2,2.45-7.62,3.44-11.59,4.75-15,5-29.59,10.83-42.48,20.21-3.73,2.71-7.19,5.78-10.76,8.71-.22.18-.31.53-.72,1.25a20.78,20.78,0,0,0,3.2,0c4.41-.72,8.79-1.59,13.2-2.28a68.09,68.09,0,0,1,23.78.32c3.81.74,5.26,3.26,4,6.93-3,8.75-8.82,14.71-17.22,18.48-7.1,3.19-14.18,6.49-21,10.29-3.14,1.77-5.76,4.66-8.2,7.42-1.48,1.68-2.24,4-3.19,6.15-1.33,3-.05,5.52,3.43,6.46a72.39,72.39,0,0,0,7.65,1.35c3.08.47,4,1.39,3.38,4.05-2.88,12.18-7.37,23.57-16.46,32.62a29.89,29.89,0,0,1-15.37,8.41c-9.5,1.94-19-3.7-22.61-13.55-.55-1.5-1.06-3-1.8-5.12-1.07,1.32-1.89,2.23-2.61,3.22-4.42,6.12-9.15,12-16.21,15.12-4,1.75-8.32,2.68-12.57,3.7s-8.27,1.73-12.44,2.4a31.43,31.43,0,0,1-4.95,0l-.31-.75c.95-.76,1.85-1.6,2.86-2.27,9.38-6.26,19-12.23,28.15-18.79,11.84-8.46,20-20.07,26.49-32.93,3.93-7.83,7.56-15.81,11.41-23.69.65-1.34,1.12-3.77,3.17-2.89s.57,2.79.1,4.25q-1.95,6.14-3.92,12.28c-1.42,4.44-.92,8.85.35,13.21a9.54,9.54,0,0,0,4.87,5.83c1.35.72,2.41.65,3.11-1,.94-2.24,2.62-4.3,3-6.61,1.15-6.57,5.09-11.6,8.66-16.82,5.58-8.18,13.82-13.12,22.34-17.65,2.08-1.11,4.12-2.31,6.17-3.47Z" transform="translate(-136.22 -276.92)"/>
    <path class="cls-2" d="M212.85,474.18c2.11-1.56,4.21-3.12,6.33-4.66,8.14-5.91,16.51-11.53,24.36-17.8a45.81,45.81,0,0,0,13.27-16.66c.5-1.08.86-2.23,1.53-4-1.74.37-2.95.65-4.15.89-4.83,1-9.69,1.43-14.45-.23-8.08-2.81-11.4-8.92-8.83-17.05,3.2-10.12,7.61-19.7,14.32-28.05,4.54-5.64,9.58-7,15.42-4,3.6,1.84,5.94,5,7.7,8.54a29.73,29.73,0,0,1,2.86,15.64c-.17,2.45.4,3,2.71,2.34a55.16,55.16,0,0,0,16.87-8c5.76-4,5.46-10.53-.71-14.21a12.59,12.59,0,0,0-4.83-1.3c-1.26-.16-2.59.26-3.88.22a33.91,33.91,0,0,1-3.87-.52c.22-1.48.05-3.17.73-4.4,3.15-5.78,8.22-9.54,14-12.42,9-4.48,18-4.92,27.2-.52,4.51,2.16,6.13,5.59,4.22,10.18-1.59,3.8-3.73,7.36-5.59,11a12.49,12.49,0,0,0-.62,1.75,5.94,5.94,0,0,0,2,.59c8.75-.66,16.25-3.7,21.23-11.41.65-1,1.33-2,2.09-3.16A13.78,13.78,0,0,1,344,378c2.15,2,5.16,2.38,7.22.35a65.64,65.64,0,0,0,5.61-7,19.72,19.72,0,0,0,1.22-1.94c.36,0,.56-.06.67,0,4.57,3.31,8,2.72,11.17-2.07a32,32,0,0,0,2.54-4.72c.59-1.31,1.29-1.5,2.45-.78,2.05,1.29,3.89.76,5.92-.36,5.62-3.11,8.81-8.26,11.85-13.56,2.26-3.94,4.21-8.09,6.7-11.88,2.16-3.3,4.94-6.18,7.32-9.35,2.83-3.75,5.56-7.58,8.24-11.45,1.76-2.54,2-2.63,3.94-.17,2.49,3.11,5.14,6.12,7.32,9.43,6.26,9.46,1.74,23.51-9,27-3.47,1.13-7.57.79-11.33.44s-6.88.68-9.09,3.85-4.33,6.48-6.57,9.66a51.13,51.13,0,0,1-24.64,19c-2.36.87-4.24,2.94-6.52,4.08-7.36,3.67-13.79,9.17-22.14,10.91a11.08,11.08,0,0,0-5.49,2.94c-6.8,7.16-14.8,8.29-23.67,5.08-3.08-1.12-5.22-.84-7.79,1.49a155,155,0,0,1-33.35,22.7c-1.18.6-1.93,2.28-2.6,3.6-3.36,6.67-6.49,13.45-10,20.05a28.69,28.69,0,0,1-18.69,14.9c-6,1.59-11.95,3.07-17.95,4.5a25.58,25.58,0,0,1-4.22.29Z" transform="translate(-136.22 -276.92)"/>
    <path class="cls-2" d="M136.78,477.8V460c0-3.5.05-7,0-10.49,0-1.32.35-1.88,1.68-2.43,12.94-5.29,24.31-12.81,32.44-24.42a52.22,52.22,0,0,0,5.46-10.81c1.81-4.59.49-7.54-4.11-9.35-4.45-1.75-9.08-3-13.62-4.54-5.47-1.83-10.54-4.37-12.45-10.31-1.71-5.32-1.26-10.85.2-16.15C152,351,163.7,334.07,178.37,319c10.15-10.4,21.38-19.48,34.34-26.23a54.05,54.05,0,0,1,6.7-2.84,2.59,2.59,0,0,1,3.21,3.28,46.22,46.22,0,0,1-2.44,7.64c-2.44,5.75-5,11.44-7.65,17.11-.85,1.83-1.81,2.7-4.47,2.17-2.93-.59-6.33.15-9.32,1-17.17,5-29.6,16.13-38.9,31-2.92,4.66-1.47,8.93,3.51,11.32,4.16,2,8.49,3.66,12.79,5.34,5.77,2.26,8,6.87,8.39,12.59.57,8.43-.7,16.74-2.49,24.93-2.41,11-5.68,21.69-10.8,31.74-6.93,13.61-15.54,25.93-27.89,35.26C141.43,474.8,139.37,476.06,136.78,477.8Z" transform="translate(-136.22 -276.92)"/>
    <path class="cls-2" d="M223.84,414c.19,14.2-5.44,26.77-11.87,39.09-2.85,5.45-5.91,10.95-11.65,13.7s-12,4.78-18.12,7.06a55.8,55.8,0,0,1-5.8,1.84,9.26,9.26,0,0,1-2.51-.08c.35-.82.46-1.92,1.07-2.43,3-2.52,6-4.92,9.14-7.3,7.74-6,15.19-12.28,21-20.21,4.22-5.73,4.19-9.22.19-15.13-4.15-6.13-9.53-11.09-15.35-15.58-4-3.08-3.23-3-1.76-6.31,4.09-9.19,8.14-18.4,12.26-27.58,1.58-3.49,1.71-3.46,4.66-.87,5.69,5,11.3,10.05,15.16,16.73C223.33,402.19,224,407.93,223.84,414Z" transform="translate(-136.22 -276.92)"/>
</svg>